<svg id="Artboard_2" data-name="Artboard 2" xmlns="http://www.w3.org/2000/svg" viewBox="0 0 512 385"><defs><style>.cls-1{fill:#f2e8cc;}.cls-2{fill:#fff7dc;}.cls-3{fill:#231f20;}</style></defs><title>bg-cloud</title><path class="cls-1" d="M500.51,162.78a83.31,83.31,0,0,0-17.13-31.19A94.72,94.72,0,0,0,457.85,111a107.86,107.86,0,0,0-27.35-10.74,97.94,97.94,0,0,0-25.34-2.61c-2,.12-3.85.15-5.7.34l-5.36.81a79.84,79.84,0,0,0-9.55,2.16,41.26,41.26,0,0,0-14.1,7.61,26.24,26.24,0,0,0-4,3.83,143.47,143.47,0,0,0,2.42-15.67,80.52,80.52,0,0,0-1-22.54c-.32-2-.95-4-1.44-6.12-.68-2-1.24-4.13-2.1-6.16a72.6,72.6,0,0,0-6-12.2c-9.71-16-26.48-29.63-46.68-36.77S270,5.44,252.32,11C234.48,16.43,221,26.72,211.49,36.4a115.5,115.5,0,0,0-18.75,25.87c-1.72,3.34-4.17,5.35-4.91,7.17,0,.1,1.11.77,1.07.86l-.15-.11c-1.6-1.15-3.35-2.31-5.19-3.51s-4-2.45-6.3-3.53a68.46,68.46,0,0,0-15.75-5.36,78.6,78.6,0,0,0-19.15-1.39c-13.86.6-28.53,6.3-41,15.94a78.77,78.77,0,0,0-25.92,35.47,71.85,71.85,0,0,0-3.74,19,84.18,84.18,0,0,0,1,16.46c1.54,10,3.73,17.53,6.51,22.28,1.27,2.45,2.52,5.85,3.75,6.59.38.23,1.18.37,1.3.54-5-1-10.91-2.89-17.28-2.55a53.68,53.68,0,0,0-23.11,6.44A72.93,72.93,0,0,0,22.56,194a59.16,59.16,0,0,0-12.8,28.27A65.68,65.68,0,0,0,9,230.48a81.68,81.68,0,0,0,.29,8.24A62.39,62.39,0,0,0,13,255.43a50.7,50.7,0,0,0,21.74,25.93c9.52,5.68,19.94,8.05,29.62,8.67a79.22,79.22,0,0,0,14.14-.35,87,87,0,0,0,13-2.38c3.75-.95,6.07-3.06,9.42-4.38-.66,1.33-.84,4.26-1.23,6.51-.52,3,0,6.5.17,10.75,0,2.13.2,4.39.4,6.78q.17,1.81.35,3.72c.18,1.3.49,2.6.75,4a76.46,76.46,0,0,0,17.19,34.18,87.43,87.43,0,0,0,39.52,25.71,89.9,89.9,0,0,0,47.07,2.13,80.88,80.88,0,0,0,19.36-7.07,87,87,0,0,0,15-9.5c8.58-6.74,13.74-14.15,16.23-19.58a57.54,57.54,0,0,0,2.9-6.7c.08-.33.32-1.35.38-1.61.4,2.47.2,6.05,1,8.78a55.87,55.87,0,0,0,7.2,15.37,46.85,46.85,0,0,0,14.47,13.83c1.58.84,3.17,1.76,4.83,2.55s3.44,1.42,5.22,2a57.8,57.8,0,0,0,34.79,0,61.13,61.13,0,0,0,34.92-28.12c5.62-9.93,8.29-22.38,9.28-31.27,1.46,2.43,3.45,2.81,6.27,5.79,2.13,2.17,4.72,9.31,8.06,11.15a24.67,24.67,0,0,0,12.18,3.16,21.62,21.62,0,0,0,6.89-1.15c1.1-.34,2.24-.67,3.35-1.08l3.2-1.66,1.61-.87,1.47-1.12c1-.76,2-1.53,2.94-2.35,1.65-1.89,3.58-3.65,4.81-6a31.72,31.72,0,0,0,4.86-14.06,39.64,39.64,0,0,0-.08-7,34.8,34.8,0,0,0-1.37-6.41c-.77-2.44-2.08-3.41-3.16-5.47,1.62-.27,2.82-.64,4.9-1.15a107.94,107.94,0,0,0,34.61-14.83c6.68-4.09,12.95-10.23,18.81-17.44a125.19,125.19,0,0,0,14.69-25.29,110.34,110.34,0,0,0,8.57-31.47A89.61,89.61,0,0,0,500.51,162.78Z"/><path class="cls-2" d="M469.43,167.6a77,77,0,0,0-15.21-28.54,84.64,84.64,0,0,0-22.67-18.84,94.11,94.11,0,0,0-24.29-9.83,84.46,84.46,0,0,0-22.5-2.39c-1.73.11-3.42.14-5.06.31l-4.76.74a69.15,69.15,0,0,0-8.49,2,36.34,36.34,0,0,0-12.52,7,23.63,23.63,0,0,0-3.54,3.51,135,135,0,0,0,2.15-14.34,75.86,75.86,0,0,0-.88-20.63c-.29-1.86-.84-3.7-1.28-5.6-.6-1.85-1.1-3.78-1.86-5.64a67.21,67.21,0,0,0-5.36-11.16C334.55,49.5,319.65,37,301.71,30.48S264.78,23.58,249,28.69,221.2,43.06,212.78,51.92a105.76,105.76,0,0,0-16.65,23.67c-1.53,3.06-3.7,4.89-4.36,6.57,0,.09,1,.7.95.79l-.14-.1c-1.42-1-3-2.11-4.61-3.21s-3.56-2.24-5.59-3.23a59.62,59.62,0,0,0-14-4.91,67.76,67.76,0,0,0-17-1.27C139.09,70.78,126.06,76,115,84.81a72,72,0,0,0-23,32.47,67.57,67.57,0,0,0-3.32,17.37,79.4,79.4,0,0,0,.88,15.06c1.36,9.12,3.32,16,5.78,20.39,1.12,2.25,2.24,5.36,3.33,6,.34.21,1.05.34,1.16.49-4.46-.89-9.69-2.64-15.34-2.34a46.59,46.59,0,0,0-20.52,5.89,65.2,65.2,0,0,0-18.89,16A54.92,54.92,0,0,0,33.65,222a61.83,61.83,0,0,0-.66,7.53c0,2.49,0,5,.26,7.54a58.66,58.66,0,0,0,3.28,15.3,47.15,47.15,0,0,0,7.83,13.77,46.22,46.22,0,0,0,11.47,10,57,57,0,0,0,26.3,7.94,68.22,68.22,0,0,0,12.55-.32,75,75,0,0,0,11.55-2.18c3.33-.86,5.39-2.8,8.37-4-.58,1.22-.75,3.9-1.09,6-.46,2.73,0,6,.15,9.83,0,1.95.18,4,.36,6.2q.15,1.65.31,3.4c.16,1.19.44,2.38.67,3.63a70.83,70.83,0,0,0,15.26,31.28,78.26,78.26,0,0,0,76.89,25.49,70.49,70.49,0,0,0,17.2-6.47,77.09,77.09,0,0,0,13.3-8.7,50.62,50.62,0,0,0,14.41-17.92,53.45,53.45,0,0,0,2.58-6.13l.34-1.47c.35,2.26.18,5.54.9,8a51.9,51.9,0,0,0,6.4,14.07,42.17,42.17,0,0,0,12.85,12.66c1.41.77,2.82,1.61,4.29,2.33s3.06,1.3,4.64,1.84a49.89,49.89,0,0,0,30.9,0,55.09,55.09,0,0,0,18.49-10.35A56.86,56.86,0,0,0,346,335.85c5-9.09,7.36-20.49,8.24-28.62,1.3,2.22,3.07,2.58,5.57,5.3,1.89,2,4.19,8.52,7.16,10.2a21.39,21.39,0,0,0,10.81,2.89,18.69,18.69,0,0,0,6.12-1c1-.32,2-.61,3-1l2.84-1.52,1.43-.8,1.31-1c.87-.7,1.75-1.4,2.61-2.15,1.46-1.73,3.18-3.34,4.27-5.45a29.6,29.6,0,0,0,4.32-12.87,37.36,37.36,0,0,0-.08-6.42,32.63,32.63,0,0,0-1.21-5.87c-.69-2.24-1.85-3.12-2.81-5,1.44-.25,2.51-.59,4.36-1.05a94.32,94.32,0,0,0,30.74-13.57c5.94-3.74,11.5-9.36,16.7-16a115.47,115.47,0,0,0,13-23.15,103.37,103.37,0,0,0,7.61-28.8A84.43,84.43,0,0,0,469.43,167.6Z"/><path class="cls-3" d="M503.73,162.39a84.41,84.41,0,0,0-17.35-31.6,95.94,95.94,0,0,0-25.87-20.86,109.32,109.32,0,0,0-27.72-10.88,99.09,99.09,0,0,0-25.68-2.64c-2,.12-3.9.15-5.77.35l-5.43.82a80.9,80.9,0,0,0-9.68,2.19c-6,1.69-11,4-14.48,6.75a21.38,21.38,0,0,0-3.45,3.38,121,121,0,0,0,2.06-14.42,81.58,81.58,0,0,0-1-22.84c-.33-2.06-1-4.1-1.46-6.2-.69-2-1.25-4.18-2.13-6.24a73.51,73.51,0,0,0-6.11-12.36c-9.83-16.19-26.83-30-47.3-37.25s-42.14-7.63-60.1-2C234.19,14.1,220.5,24.52,210.9,34.33a117,117,0,0,0-19,26.21c-1.75,3.38-3,6-3.78,7.88l-.12.26-.15-.12c-1.62-1.16-3.4-2.34-5.26-3.56s-4.06-2.48-6.38-3.57a69.26,69.26,0,0,0-16-5.43,79.64,79.64,0,0,0-19.4-1.41c-14,.61-28.9,6.38-41.58,16.15A79.8,79.8,0,0,0,73,106.69a72.66,72.66,0,0,0-3.79,19.23,85.22,85.22,0,0,0,1,16.67,64.7,64.7,0,0,0,7.68,22.57,43.08,43.08,0,0,0,3.48,5.39l.39.54a71.31,71.31,0,0,0-17.34-1.29A54.4,54.4,0,0,0,41,176.32,73.92,73.92,0,0,0,19.47,194a60,60,0,0,0-13,28.64A67,67,0,0,0,5.75,231a82.41,82.41,0,0,0,.3,8.35,63.26,63.26,0,0,0,3.74,16.94,51.78,51.78,0,0,0,8.94,15.24,52.33,52.33,0,0,0,13.09,11c9.65,5.75,20.2,8.16,30,8.79A80.1,80.1,0,0,0,76.16,291a93,93,0,0,0,23.95-5.9,20.32,20.32,0,0,0-1.67,5.48,56,56,0,0,0-.62,11.06c0,2.16.21,4.45.41,6.87l.35,3.77c.19,1.31.5,2.64.76,4a77.49,77.49,0,0,0,17.42,34.63,88.58,88.58,0,0,0,40,26,91.07,91.07,0,0,0,47.69,2.16,82,82,0,0,0,19.62-7.16,88.27,88.27,0,0,0,15.18-9.63c8.7-6.83,13.92-14.34,16.45-19.84a39.48,39.48,0,0,0,2.36-6.54l.21-.87a61.86,61.86,0,0,0,1.79,7.89,56.68,56.68,0,0,0,7.3,15.58,47.48,47.48,0,0,0,14.66,14c1.61.86,3.21,1.78,4.9,2.58s3.49,1.44,5.29,2a58.62,58.62,0,0,0,35.25,0,61.94,61.94,0,0,0,35.38-28.49,76.41,76.41,0,0,0,9.4-29.2,48.33,48.33,0,0,0,6.35,8.35,35.11,35.11,0,0,0,8.17,6.33,25,25,0,0,0,12.34,3.2,21.92,21.92,0,0,0,7-1.16c1.12-.35,2.27-.68,3.39-1.1l3.25-1.68,1.63-.89,1.49-1.13c1-.77,2-1.55,3-2.38,1.67-1.92,3.63-3.7,4.87-6a32.11,32.11,0,0,0,4.93-14.24,40.11,40.11,0,0,0-.08-7.11,35.17,35.17,0,0,0-1.39-6.5,42.41,42.41,0,0,0-2.85-6.83c1.64-.28,3.53-.63,5.63-1.14,8.34-1.87,20.78-5,34.06-13.76,6.77-4.14,13.12-10.36,19.06-17.67A126.72,126.72,0,0,0,498,230.07a111.73,111.73,0,0,0,8.68-31.89A90.79,90.79,0,0,0,503.73,162.39Zm-7.61,34.76a110.89,110.89,0,0,1-6.8,29.43,130.2,130.2,0,0,1-12.41,24.76c-4.91,7-10.17,13.14-16.14,17.56-11.6,9.28-23.32,13.76-31.29,16.57-2.12.8-4,1.4-5.65,1.89a44.14,44.14,0,0,0-8.3-10.72,42.87,42.87,0,0,0-11.72-8.05,29.31,29.31,0,0,0-3.54-1.4l-1.24-.42,1,.83c.68.52,1.64,1.33,2.81,2.42a52.2,52.2,0,0,1,8.45,10.16,45.89,45.89,0,0,1,6.82,17.13A27.45,27.45,0,0,1,414.41,317c-.79,1.61-2.16,2.75-3.18,4.15l-1.94,1.67-.95.86-1.08.65-2.11,1.36c-.75.35-1.53.63-2.28,1A14.54,14.54,0,0,1,398.5,328c-5.8,1-11.82-1.62-16.37-4.49a61.44,61.44,0,0,1-9.55-7.67c0-.75.11-1.51.14-2.24a57.53,57.53,0,0,0-3.86-23.85,42.15,42.15,0,0,0-3-5.79l-1.19-1.91.76,2.11a46.54,46.54,0,0,1,1.76,6.09,60.84,60.84,0,0,1,0,22.78A79.81,79.81,0,0,1,355,343.72a58,58,0,0,1-30.77,22.88,53.81,53.81,0,0,1-29.17.92c-1.49-.39-2.9-.92-4.35-1.35s-2.72-1.2-4.08-1.77a42.35,42.35,0,0,1-13.21-10.46A55.47,55.47,0,0,1,265.25,341a67.29,67.29,0,0,1-5.73-22.11l-.26-3.67c0-1.07,0-2,0-2.7,0-1.47,0-2.25,0-2.25l-.46,2.2-.53,2.69-.45,3.72a64.34,64.34,0,0,0,.41,15.61l-.57,1.25a43.2,43.2,0,0,1-3.41,5.84,58.44,58.44,0,0,1-18.11,16.17A94.24,94.24,0,0,1,221,365a84,84,0,0,1-18.29,4.9,94.36,94.36,0,0,1-42.57-3.54,91,91,0,0,1-36.58-21.88,79.07,79.07,0,0,1-18.91-29.73c-.39-1.2-.85-2.36-1.18-3.51l-.83-3.52c-.53-2.31-1-4.49-1.37-6.53a60,60,0,0,1-1.13-10.54,18.53,18.53,0,0,1,.82-6,99.89,99.89,0,0,0,10.49-5,165.32,165.32,0,0,0,27.23-20c5.86-5.33,9-8.37,9-8.37l-10.05,7A193.13,193.13,0,0,1,109,274.83,92.54,92.54,0,0,1,62.65,282c-8.67-1-17.6-3.58-25.29-8.5A42.71,42.71,0,0,1,20.1,252.33a55.88,55.88,0,0,1-3.19-14c-.31-2.39-.31-4.81-.4-7.21a60.54,60.54,0,0,1,.44-6.94,52.72,52.72,0,0,1,9.88-24.44,69.79,69.79,0,0,1,18.09-16.91A50.17,50.17,0,0,1,65,175.29c13.42-2,24.8.34,32.35,2.11,3.8,1,6.72,1.86,8.69,2.52l3,1-2.82-1.45c-1.86-.94-4.65-2.25-8.35-3.72A96.27,96.27,0,0,0,84,171.5c-.57-.12-1.19-.23-1.78-.34l-.37-.85a48.52,48.52,0,0,1-2.32-5.86,70.21,70.21,0,0,1-3.75-22.35,92.48,92.48,0,0,1,1-15.46,73.66,73.66,0,0,1,4.95-16.54,81.42,81.42,0,0,1,24.37-30.64c11.07-8.52,23.7-14.13,35.64-15.58a82.54,82.54,0,0,1,17.44-.41,71.26,71.26,0,0,1,15,3.08c2.26.69,4.29,1.64,6.31,2.4,2,.92,3.9,1.77,5.63,2.62a54.09,54.09,0,0,1,8.47,4.94,16.92,16.92,0,0,1,4.31,4.37,9.66,9.66,0,0,1,.94,2,9.11,9.11,0,0,0-.51-2.18,17,17,0,0,0-3.58-5.44,49.29,49.29,0,0,0-7.34-6.29l.19-.3c1-1.7,2.67-4.12,4.83-7.19a130,130,0,0,1,21.29-23.08c10.08-8.38,23.58-16.81,40.06-20.77,16.33-4.11,35.61-3.13,53.93,3.39s33.69,18.17,43.21,31.94A69.63,69.63,0,0,1,358,63.51c.92,1.77,1.54,3.63,2.3,5.41.58,1.84,1.31,3.62,1.74,5.45a81.26,81.26,0,0,1,2.83,20.94,145.18,145.18,0,0,1-3,31.33l-1,4.89-.91,3.55-.75,2.94,1.2-2.79,1.43-3.4,1.74-4.74a145.52,145.52,0,0,0,4.25-14.94,19.33,19.33,0,0,1,4.92-4.21A41.75,41.75,0,0,1,387,103.17,82.63,82.63,0,0,1,396.5,102l5.14-.28c1.76,0,3.58.13,5.42.18a99.93,99.93,0,0,1,23.72,4.4,109.35,109.35,0,0,1,25,11.61,92.56,92.56,0,0,1,22.57,19.69,78.82,78.82,0,0,1,14.82,27.87A86.16,86.16,0,0,1,496.12,197.14Z"/></svg>