<svg id="Artboard_2" data-name="Artboard 2" xmlns="http://www.w3.org/2000/svg" viewBox="0 0 1300 1300"><defs><style>.cls-1{fill:#ffa64d;fill-rule:evenodd;}</style></defs><title>bg-first</title><polygon class="cls-1" points="764.71 1365.57 651.85 605.93 918.43 1365.57 764.71 1365.57 764.71 1365.57"/><polygon class="cls-1" points="1088.14 1365.57 651.85 605.93 1305.07 1363.79 1276.27 1365.57 1088.14 1365.57 1088.14 1365.57"/><polygon class="cls-1" points="1365.57 1178.26 651.85 605.93 1365.57 982.85 1365.57 1178.26 1365.57 1178.26"/><polygon class="cls-1" points="1365.57 828.32 651.85 605.93 1365.56 686.24 1365.57 828.32 1365.57 828.32"/><polygon class="cls-1" points="651.85 605.93 1365.57 415.86 1365.57 555.72 651.85 605.93 651.85 605.93"/><polygon class="cls-1" points="651.85 605.93 1365.57 81.01 1365.57 266.34 651.85 605.93 651.85 605.93"/><polygon class="cls-1" points="651.85 605.93 1075.74 -65.56 1281.29 -65.56 651.85 605.93 651.85 605.93"/><polygon class="cls-1" points="651.85 605.93 780.44 -65.56 919.45 -65.56 651.85 605.93 651.85 605.93"/><polygon class="cls-1" points="651.85 605.93 535.12 -65.56 663.88 -65.56 651.85 605.93 651.85 605.93"/><polygon class="cls-1" points="651.85 605.93 243.86 -65.56 402.19 -65.56 651.85 605.93 651.85 605.93"/><polygon class="cls-1" points="651.85 605.93 -65.55 59.1 -65.55 -59.42 33.99 -65.56 51.53 -65.56 651.85 605.93 651.85 605.93"/><polygon class="cls-1" points="651.85 605.93 -65.57 401.65 -65.55 243.81 651.85 605.93 651.85 605.93"/><polygon class="cls-1" points="-65.55 674.21 -65.57 537.49 651.85 605.93 -65.55 674.21 -65.55 674.21"/><polygon class="cls-1" points="-65.55 969.22 -65.55 811.25 651.85 605.93 -65.55 969.22 -65.55 969.22"/><polygon class="cls-1" points="-59.57 1365.57 -65.55 1268.58 -65.55 1153.87 651.85 605.93 -25.93 1365.57 -59.57 1365.57 -59.57 1365.57"/><polygon class="cls-1" points="191.63 1365.57 651.85 605.93 370.51 1365.57 191.63 1365.57 191.63 1365.57"/><polygon class="cls-1" points="499.68 1365.57 651.85 605.93 646.01 1365.57 499.68 1365.57 499.68 1365.57"/></svg>