<svg xmlns="http://www.w3.org/2000/svg" xmlns:xlink="http://www.w3.org/1999/xlink" viewBox="0 0 358 136"><defs><style>.cls-1{isolation:isolate;}.cls-2,.cls-9{fill:#fff;}.cls-3{fill:#35383f;}.cls-4{opacity:0.3;mix-blend-mode:multiply;}.cls-5{fill:url(#GradientFill_33);}.cls-6{fill:url(#GradientFill_33-2);}.cls-7,.cls-8{fill-rule:evenodd;}.cls-7{fill:url(#radial-gradient);}.cls-8{fill:url(#radial-gradient-2);}.cls-9{stroke:#35383f;stroke-miterlimit:10;stroke-width:2px;}</style><linearGradient id="GradientFill_33" x1="1193.98" y1="82.67" x2="1226.49" y2="82.67" gradientTransform="matrix(-1, 0, 0, 1, 1317.81, 0)" gradientUnits="userSpaceOnUse"><stop offset="0" stop-color="#d7d8dc"/><stop offset="0.25" stop-color="#ebedef"/><stop offset="0.75" stop-color="#aeadb3"/><stop offset="1" stop-color="#d7d8dc"/></linearGradient><linearGradient id="GradientFill_33-2" x1="3.63" y1="84.42" x2="39.77" y2="84.42" gradientTransform="matrix(1, 0, 0, 1, 0, 0)" xlink:href="#GradientFill_33"/><radialGradient id="radial-gradient" cx="42.93" cy="86.6" r="23.35" gradientUnits="userSpaceOnUse"><stop offset="0" stop-color="#fff"/><stop offset="0.01" stop-color="#f7fcfc"/><stop offset="0.09" stop-color="#c4e9e5"/><stop offset="0.17" stop-color="#95d8d1"/><stop offset="0.26" stop-color="#6dc9bf"/><stop offset="0.35" stop-color="#4bbcb1"/><stop offset="0.44" stop-color="#30b2a5"/><stop offset="0.55" stop-color="#1baa9c"/><stop offset="0.66" stop-color="#0ca495"/><stop offset="0.8" stop-color="#03a191"/><stop offset="1" stop-color="#00a090"/></radialGradient><radialGradient id="radial-gradient-2" cx="93.71" cy="81.96" r="23.35" xlink:href="#radial-gradient"/></defs><title>memozi-logo</title><g class="cls-1"><g id="Warstwa_1" data-name="Warstwa 1"><path class="cls-2" d="M123.77,85.08c2.4-22.43-9-41.87-25.46-43.42S66.56,57,64.16,79.47s9,41.87,25.46,43.42S121.37,107.51,123.77,85.08Z"/><path class="cls-3" d="M123.63,85.06a46.67,46.67,0,0,0-5.06-26.84,34.31,34.31,0,0,0-8.52-10.38A23.2,23.2,0,0,0,98,42.77a23.47,23.47,0,0,0-13,2.55A31.88,31.88,0,0,0,74.51,54a43.19,43.19,0,0,0-6.67,12.06,53.3,53.3,0,0,0-2.94,13.47c-.65,9.15.75,18.51,4.84,26.58A31.34,31.34,0,0,0,78,116.53,22.25,22.25,0,0,0,90,121.47a23.25,23.25,0,0,0,12.7-2.72,35.2,35.2,0,0,0,10.4-8.49A47.62,47.62,0,0,0,123.63,85.06Zm.27,0a64.25,64.25,0,0,1-3,13.67,48,48,0,0,1-6.41,12.58A33.11,33.11,0,0,1,103.9,121a25.24,25.24,0,0,1-14.18,3.3,24.3,24.3,0,0,1-13.47-5.62,34,34,0,0,1-8.79-11.45c-4.21-8.68-5.22-18.53-4-27.87A59.73,59.73,0,0,1,67,65.75a50.45,50.45,0,0,1,6.84-12.28A36.36,36.36,0,0,1,84.29,44a25,25,0,0,1,13.89-3.47A23.42,23.42,0,0,1,111.54,46a31.38,31.38,0,0,1,8.55,11.46,46.07,46.07,0,0,1,3.71,13.62A64.09,64.09,0,0,1,123.9,85.09Z"/><g class="cls-4"><path class="cls-5" d="M107,103.27c7.41-20.07,7.48-44.94-7.6-61.18,15.72,2.46,26.43,21.44,24.09,43.24-2.3,21.54-16.49,38-32.19,37.9C98.28,119,103.86,110.7,107,103.27Z"/></g><ellipse class="cls-2" cx="35.93" cy="84.28" rx="32.4" ry="47.07" transform="translate(-8.24 4.01) rotate(-5.73)"/><path class="cls-3" d="M68.32,81a76.36,76.36,0,0,1,.38,7.88,71.66,71.66,0,0,1-.41,7.89,56.62,56.62,0,0,1-3.76,15.43,36.63,36.63,0,0,1-9,13.36,25,25,0,0,1-14.8,6.76,25.53,25.53,0,0,1-15.6-4.11,35,35,0,0,1-6.23-5.05,45.72,45.72,0,0,1-5.1-6.11A60.38,60.38,0,0,1,6.6,103,71,71,0,0,1,2.88,87.6c-1.32-10.51-.3-21.53,4-31.46a39.75,39.75,0,0,1,9.24-13.35,25.87,25.87,0,0,1,14.92-6.93A25.85,25.85,0,0,1,47,39.78a37.23,37.23,0,0,1,11.42,11.4,57.22,57.22,0,0,1,6.74,14.4,71.25,71.25,0,0,1,2,7.66A76,76,0,0,1,68.32,81Zm-.3,0A56.58,56.58,0,0,0,56.84,52.33,39.56,39.56,0,0,0,45.55,42.27a26,26,0,0,0-6.87-2.76A22,22,0,0,0,31.39,39a22.33,22.33,0,0,0-7,2,25.79,25.79,0,0,0-6.13,4.1A36.81,36.81,0,0,0,9.48,57.3c-4.24,9.29-5.69,19.82-5,30.14a63.2,63.2,0,0,0,3,15.25,51.39,51.39,0,0,0,7.06,13.84A35.87,35.87,0,0,0,26,126.82a23.75,23.75,0,0,0,14.5,3.06,23.36,23.36,0,0,0,7.09-2.08,26.66,26.66,0,0,0,6.18-4.16,40.38,40.38,0,0,0,9-12.18A56.57,56.57,0,0,0,68,81.06Z"/><g class="cls-4"><path class="cls-6" d="M22.79,108.17C14.78,85,14.71,56.35,31,37.63,14,40.47,1.43,62.35,4,87.5c2.49,24.84,18.84,43.81,35.82,43.71C32.25,126.26,26.22,116.73,22.79,108.17Z"/></g><path class="cls-3" d="M63.27,7.61S55.33,29.8,39.77,30.2s-24.57,0-24.57,0Z"/><path class="cls-3" d="M74,12.61s11-18,24.58-5,16.26,17.66,16.26,17.66S86.79,5.61,74,12.61Z"/><path class="cls-7" d="M45.32,111.5a11.28,11.28,0,0,0,7.23-4.42c.9-1.14,1.75-2.32,2.58-3.52.5-1,1-2.09,1.42-3.15,1.68-6.33,1.06-13.5-.84-20.13a16.28,16.28,0,0,0-7.51-5.48c-1.82-.69-3.81-1.55-5.65-1.4-3.57.3-6.64,2-8.2,5.49-1.07,2.41-2.45,4.8-2.88,7.33-.61,3.54,1.34,6.56,3.33,9.37a25.67,25.67,0,0,0,1.95,2.14c1.53,1.7,3.66,1.85,5.7,2.24,4.7.91,6.94-2.06,8.2-5.69,1.16-3.35-.48-6.79-3.87-8.67a6.48,6.48,0,0,0-4.52-.74c-1.49.27-2.57,2-1.82,3.22a2.86,2.86,0,0,0,2,.9,15.23,15.23,0,0,0,2.9-.22c.57,2.08-.2,3.89-1.25,5.59s-2,2.14-4.17,1.71c-1.94-.39-2.88-1.54-3.37-4-.46-2.26.51-4.21,1.35-6.16a30.42,30.42,0,0,1,2.46-4.38c2.45-3.82,8-5,10.86-1.69A8.21,8.21,0,0,1,52.71,83a23,23,0,0,1,0,12.82A18.32,18.32,0,0,1,45.53,106a16,16,0,0,1-9.72,2.66c-3-.11-4.69-2.31-5.64-4.73-2.4-6.13-3-12.42-.55-18.75,1.07-2.77,1.83-5.69,3.14-8.33,1.76-3.53,3.62-7.05,7.36-9.08,4.59-2.49,9.09-2.18,13.75-.21,2.6,1.1,2.92,3.56,3.63,5.65a55.23,55.23,0,0,1,1.61,5.67,27.6,27.6,0,0,1,2.18,7.1,106.42,106.42,0,0,0,2-10.66,39.75,39.75,0,0,0-2-4.2,17.21,17.21,0,0,0-5.72-6.57A25.37,25.37,0,0,0,46,61a15.89,15.89,0,0,0-11.84,2.13C28.31,66.9,26,73,23.88,79.1a33.54,33.54,0,0,0-1.33,8.84c-.26,4.21,1,8.24,2.1,12.25.95,3.4,3.42,5.73,5.78,8.11,2.67,2.68,5.81,4.52,9.75,4.22C41.91,112.39,43.59,111.75,45.32,111.5Z"/><path class="cls-8" d="M91.32,106.86a11.28,11.28,0,0,1-7.23-4.42c-.9-1.14-1.75-2.32-2.59-3.52-.5-1-1-2.09-1.42-3.15-1.68-6.33-1.06-13.5.84-20.13a16.33,16.33,0,0,1,7.51-5.48c1.82-.69,3.81-1.55,5.65-1.4,3.57.3,6.64,2,8.21,5.48,1.07,2.41,2.45,4.8,2.88,7.33.61,3.54-1.34,6.56-3.33,9.37a25.68,25.68,0,0,1-1.94,2.14c-1.53,1.7-3.66,1.85-5.7,2.24-4.7.91-6.94-2.06-8.2-5.69-1.16-3.35.48-6.79,3.87-8.67a6.48,6.48,0,0,1,4.52-.74c1.49.27,2.57,2,1.82,3.22a2.87,2.87,0,0,1-2,.9,15.26,15.26,0,0,1-2.9-.22c-.57,2.08.2,3.89,1.26,5.59s2,2.14,4.17,1.71c1.94-.39,2.88-1.54,3.37-4,.45-2.26-.51-4.21-1.35-6.16a30.49,30.49,0,0,0-2.46-4.38c-2.45-3.82-8-5-10.86-1.69a8.22,8.22,0,0,0-1.52,3.11,23,23,0,0,0,0,12.82,18.34,18.34,0,0,0,7.14,10.18,16,16,0,0,0,9.72,2.66c3-.11,4.69-2.31,5.64-4.73,2.4-6.13,3-12.42.55-18.75-1.07-2.77-1.82-5.69-3.14-8.33-1.76-3.52-3.62-7-7.36-9.08-4.59-2.49-9.09-2.18-13.75-.21-2.6,1.1-2.92,3.56-3.63,5.65a55.76,55.76,0,0,0-1.61,5.68,27.56,27.56,0,0,0-2.18,7.1,107,107,0,0,1-2-10.66,40.3,40.3,0,0,1,2-4.2A17.21,17.21,0,0,1,81,59.87a25.36,25.36,0,0,1,9.66-3.55,15.88,15.88,0,0,1,11.84,2.13c5.81,3.82,8.13,9.92,10.24,16a33.49,33.49,0,0,1,1.33,8.85c.26,4.21-1,8.23-2.1,12.25-.95,3.4-3.42,5.73-5.78,8.11-2.67,2.68-5.81,4.52-9.75,4.22C94.73,107.75,93,107.12,91.32,106.86Z"/></g><g id="Warstwa_2" data-name="Warstwa 2"><path class="cls-9" d="M190.63,112.43q-.42,2.58-1.44,2.82-1.44.36-5.52-.78-4.32-1.2-4.92-2.4a2.24,2.24,0,0,1-.18-.9,7.36,7.36,0,0,1,.15-1.17,7.72,7.72,0,0,0,.15-1.35V81.41q-2.82,5.52-7.38,24.84a2.18,2.18,0,0,0-.06.54,13.63,13.63,0,0,0,.21,1.92,14.68,14.68,0,0,1,.21,1.68,17.4,17.4,0,0,1-.18,2.4,1.76,1.76,0,0,1-1.26,1.44,8.34,8.34,0,0,1-2.1.18q-7.8,0-10.74-2.7a1.67,1.67,0,0,1-.36-1.5,5.92,5.92,0,0,0,0-1.74q-2.22-6.84-4-12Q149,84,147.79,81.77v23.88a7.08,7.08,0,0,0,.48,2.16,16.17,16.17,0,0,1,.66,2.1,11,11,0,0,1,.12,2.88q-.12,2-.84,2.52a2.74,2.74,0,0,1-1.38.24,21.88,21.88,0,0,1-5.28-.78q-3.3-.78-3.9-1.62a1.7,1.7,0,0,1-.3-1,5.7,5.7,0,0,1,.21-1.2,5.82,5.82,0,0,0,.21-1.32V67.07a3.16,3.16,0,0,1,.6-1.65,3,3,0,0,1,1.38-1.23q1-.42,7.86,1.44,7.14,1.86,7.56,3.24a3.31,3.31,0,0,1,.06,1.44q-.18,1.26-.18,1.5a2.43,2.43,0,0,0,.18,1l8.1,21.78q1.68-5.34,6.12-21.66,2.22-8.34,3.6-8.7a3.51,3.51,0,0,1,1-.12,18.09,18.09,0,0,1,3.42.54,23.78,23.78,0,0,0,3.66.72q4.74.42,5.46.54,2.82.54,3.18,2a3.26,3.26,0,0,1,.12.9,7.15,7.15,0,0,1-.3,1.71,7.09,7.09,0,0,0-.3,1.65v36.72a4,4,0,0,0,.75,1.8A2.87,2.87,0,0,1,190.63,112.43Z"/><path class="cls-9" d="M219.12,103.07q.54.9-2.34,5.34-3.12,4.74-6.12,6.42a2.52,2.52,0,0,1-1.08.18,18.23,18.23,0,0,1-6.12-1.44q-4-1.44-5.28-3.12Q194.7,106,194.7,98a28,28,0,0,1,3.06-13.32q3.3-6.3,8.4-6.42a11.85,11.85,0,0,1,4.5,1A14.8,14.8,0,0,1,216,82.61a7.54,7.54,0,0,1,1,3.24,27.65,27.65,0,0,1,.6,5.64q0,4.08-1.32,5.64a46.85,46.85,0,0,1-12.6,2.22,21.1,21.1,0,0,0,.72,6.18q.84,3.24,1.74,3.3,1.2.06,2.88-2a8.84,8.84,0,0,0,1.86-2.94,30.11,30.11,0,0,1,1.14-3.72,10.11,10.11,0,0,1,3.78,1Q218.64,102.23,219.12,103.07ZM208.44,84.71q-1-.12-2.85,3.24a17,17,0,0,0-2.13,6.42,7.69,7.69,0,0,0,4.32-1.32q1-.72,1-6Q208.74,84.83,208.44,84.71Z"/><path class="cls-9" d="M267.78,109.73a5.85,5.85,0,0,1,.48,2.28,2.47,2.47,0,0,1-1.38,2.46,4.25,4.25,0,0,1-1.5.18,22.77,22.77,0,0,1-4.86-.63,8.47,8.47,0,0,1-3.42-1.23,1.19,1.19,0,0,1-.3-.78,5,5,0,0,1,.9-2.13,5,5,0,0,0,.9-2.13q.12-23.64-.36-23.82-1-.3-3.9,4.74-3.24,5.52-3.24,9.6V110a8,8,0,0,1,.42,2.16,2.46,2.46,0,0,1-1.56,2.28,4.25,4.25,0,0,1-1.5.18,22.79,22.79,0,0,1-4.86-.63,8.47,8.47,0,0,1-3.42-1.23.81.81,0,0,1-.24-.6,5.7,5.7,0,0,1,.87-2.16,5.57,5.57,0,0,0,.87-2.28q.12-23.64-.36-23.82-.84-.3-4.14,5.4-3.48,6-3.48,9.06v11.22a2.61,2.61,0,0,1,.78,1.92,3.1,3.1,0,0,1-2,3.12,1.69,1.69,0,0,1-.72.12A22.16,22.16,0,0,1,227,114q-3.12-.75-3.48-1.23a1.75,1.75,0,0,1-.36-1.08,2.47,2.47,0,0,1,.69-1.44,2.86,2.86,0,0,0,.69-1.08V81.29A2.64,2.64,0,0,0,224,80a1.6,1.6,0,0,1-.3-1.32,2.3,2.3,0,0,1,1.86-1.62q1-.24,4.5.66,3.84,1,4.2,2a3.29,3.29,0,0,1-.18,2,16.6,16.6,0,0,0-.66,2.4,4.91,4.91,0,0,0,.24,1.44,18.79,18.79,0,0,1,2.52-5.34q2-2.82,4-2.82a13.7,13.7,0,0,1,5.22,1.5,10.48,10.48,0,0,1,3.78,2.46,13.94,13.94,0,0,1,1.2,4.32l2.82-5.22q2-3.06,3.9-3.06a14.06,14.06,0,0,1,5.28,1.41q3.24,1.41,3.72,2.55Q267.78,85.19,267.78,109.73Z"/><path class="cls-9" d="M293.7,79.19q3.3,1.56,5.1,6.3a29,29,0,0,1,1.62,10.2,33.07,33.07,0,0,1-2.76,14q-3.06,6.36-7.62,5.76-1.68-.42-5-1a26.43,26.43,0,0,1-4.44-.9q-3.42-.9-5.46-5.82a28.16,28.16,0,0,1-1.86-10.68,31.27,31.27,0,0,1,1.92-11.22q2.16-5.52,6.06-7.74a3.78,3.78,0,0,1,1.8-.36,27.86,27.86,0,0,1,4.74.78A35,35,0,0,1,293.7,79.19ZM287,84.59q-1.62,0-3,3.93a22.71,22.71,0,0,0-1.38,7.53,35.94,35.94,0,0,0,1,8.52q1.14,4.56,2.64,4.92,1.92.42,3.42-4.32a33.36,33.36,0,0,0,1.44-10.08,24,24,0,0,0-.78-6.06Q289.26,84.59,287,84.59Z"/><path class="cls-9" d="M332.76,84.29a10.14,10.14,0,0,1-2.1,1.44L316,106.25l7.92-.72q2-.9,2-.9a1.36,1.36,0,0,1,.9.36,7.53,7.53,0,0,1,2.37,3.45,6.69,6.69,0,0,1,.63,3.39q-.42,1.8-3.06,1.8a16,16,0,0,1-2.64-.3l-11.88,1.32a5.71,5.71,0,0,0-1.92.66,5,5,0,0,1-1.56.6.68.68,0,0,1-.3-.06,12.54,12.54,0,0,1-2.94-2.76q-2.34-2.7-2.34-4.26a1.37,1.37,0,0,1,.09-.48,2.69,2.69,0,0,1,.75-.78,15.64,15.64,0,0,0,1.38-1.14L320.1,85.37l-6.6,1.44a11.46,11.46,0,0,0-1.35.54,2.84,2.84,0,0,1-1.35.36q-.78,0-2.49-2.79t-1.65-3.87q.06-1.32,1.8-1.56a23.61,23.61,0,0,1,2.52-.06l14.82-2.16q2.4-.6,2.58-.6a1.94,1.94,0,0,1,1.47.6A14.76,14.76,0,0,1,331.56,80a9.51,9.51,0,0,1,1.38,3.72A.74.74,0,0,1,332.76,84.29Z"/><path class="cls-9" d="M348.3,112.37q.24,2.16-1.5,2.7a4.55,4.55,0,0,1-.84.06,20.26,20.26,0,0,1-5.34-.9q-3.42-1-4-2-.3-.48.54-1.86a7,7,0,0,0,.54-3.3V81.83a13,13,0,0,1-.72-3.06q0-.78,2.22-.78a16.6,16.6,0,0,1,5,1.11q3.21,1.11,3.87,1.95a1,1,0,0,1,.18.6,5.08,5.08,0,0,1-.69,1.8,4.9,4.9,0,0,0-.69,2v24.12a2.7,2.7,0,0,0,.69,1.5A3.58,3.58,0,0,1,348.3,112.37Zm.18-41.46a1.28,1.28,0,0,1,.06.48,14.37,14.37,0,0,1-.54,3.42q-.6,2.28-1.14,2.52T341.7,76q-4.56-1.53-4.86-2.19a1.78,1.78,0,0,1-.18-.9,8.09,8.09,0,0,1,.84-3.42q1-2,2.16-2.28,1.38-.24,4.8,1T348.48,70.91Z"/></g></g></svg>